<?xml version="1.0" standalone="no"?><!DOCTYPE svg PUBLIC "-//W3C//DTD SVG 1.1//EN" "http://www.w3.org/Graphics/SVG/1.1/DTD/svg11.dtd"><svg t="1584841567991" class="icon" viewBox="0 0 1024 1024" version="1.1" xmlns="http://www.w3.org/2000/svg" p-id="1252" xmlns:xlink="http://www.w3.org/1999/xlink" width="200" height="200"><defs><style type="text/css"></style></defs><path d="M294.912 246.442667L188.074667 139.946667 139.946667 188.074667l106.496 106.496 48.469333-48.128zM546.133333 34.133333h-68.266666v136.533334h68.266666V34.133333zM139.946667 835.925333l48.128 48.128 106.496-106.496-48.128-48.128-106.496 106.496zM170.666667 477.866667H34.133333v68.266666h136.533334v-68.266666z m813.397333 221.525333A237.226667 237.226667 0 0 0 887.466667 555.008V170.666667c0-75.434667-61.098667-136.533333-136.533334-136.533334s-136.533333 61.098667-136.533333 136.533334v384.341333c-25.941333 18.090667-47.786667 40.618667-64.853333 67.584-34.474667 53.930667-45.738667 117.76-31.744 180.224s50.858667 115.370667 104.789333 149.845333c38.912 24.917333 82.944 37.546667 128 37.546667 17.408 0 34.816-2.048 52.224-5.802667 62.464-13.653333 115.370667-50.858667 149.845333-104.789333 34.133333-53.930667 45.397333-118.101333 31.402667-180.224z m-89.429333 143.36a167.765333 167.765333 0 0 1-107.178667 74.752c-44.373333 9.898667-90.112 1.706667-128.682667-22.869333a169.028267 169.028267 0 0 1-74.752-107.178667c-9.898667-44.373333-1.706667-90.112 22.869334-128.682667 14.677333-23.210667 34.474667-41.984 58.368-55.978666l17.066666-9.898667V170.666667c0-37.546667 30.72-68.266667 68.266667-68.266667s68.266667 30.72 68.266667 68.266667v422.912l23.552 13.312c38.570667 24.576 64.853333 62.464 74.752 107.178666 10.24 44.373333 2.048 90.112-22.528 128.682667zM785.066667 654.677333V341.333333h-68.266667v313.344A102.263467 102.263467 0 0 0 750.933333 853.333333c56.661333 0 102.4-45.738667 102.4-102.4 0-44.373333-28.672-81.92-68.266666-96.256zM273.066667 512c0-131.754667 107.178667-238.933333 238.933333-238.933333 11.605333 0 22.869333 1.365333 34.133333 2.730666V206.848c-11.264-1.024-22.869333-2.048-34.133333-2.048-169.301333 0-307.2 137.898667-307.2 307.2 0 145.749333 102.4 267.946667 238.933333 299.349333V740.693333c-98.645333-29.354667-170.666667-120.832-170.666666-228.693333z" p-id="1253" fill="#d81e06"></path></svg>